<?xml version="1.0" encoding="UTF-8"?>
<svg width="620px" height="390px" viewBox="0 0 620 390" version="1.1" xmlns="http://www.w3.org/2000/svg" xmlns:xlink="http://www.w3.org/1999/xlink">
    <!-- Generator: Sketch 57.1 (83088) - https://sketch.com -->
    <title>cv-what-02</title>
    <desc>Created with Sketch.</desc>
    <g id="cv-what-02" stroke="none" stroke-width="1" fill="none" fill-rule="evenodd">
        <g id="Group-3" transform="translate(48.000000, 160.000000)">
            <polygon id="Triangle" fill="#4A4A4A" transform="translate(36.000000, 26.000000) rotate(90.000000) translate(-36.000000, -26.000000) " points="36 20 42 32 30 32"></polygon>
            <rect id="Rectangle" stroke="#4A4A4A" stroke-width="4" x="0" y="0" width="71" height="52" rx="2"></rect>
            <path d="M0,10.3718439 L73,10.3718439" id="Path-5" stroke="#4A4A4A" stroke-width="4"></path>
            <path d="M0,41.3718439 L73,41.3718439" id="Path-5-Copy" stroke="#4A4A4A" stroke-width="4"></path>
            <path d="M10.7464863,0 L10.7464863,10.3718439" id="Path-45" stroke="#4A4A4A" stroke-width="4"></path>
            <path d="M20.7464863,0 L20.7464863,10.3718439" id="Path-45-Copy" stroke="#4A4A4A" stroke-width="4"></path>
            <path d="M30.7464863,0 L30.7464863,10.3718439" id="Path-45-Copy-2" stroke="#4A4A4A" stroke-width="4"></path>
            <path d="M40.7464863,0 L40.7464863,10.3718439" id="Path-45-Copy-3" stroke="#4A4A4A" stroke-width="4"></path>
            <path d="M50.7464863,0 L50.7464863,10.3718439" id="Path-45-Copy-4" stroke="#4A4A4A" stroke-width="4"></path>
            <path d="M60.7464863,0 L60.7464863,10.3718439" id="Path-45-Copy-5" stroke="#4A4A4A" stroke-width="4"></path>
            <path d="M10.7464863,40 L10.7464863,50.3718439" id="Path-45-Copy-11" stroke="#4A4A4A" stroke-width="4"></path>
            <path d="M20.7464863,40 L20.7464863,50.3718439" id="Path-45-Copy-10" stroke="#4A4A4A" stroke-width="4"></path>
            <path d="M30.7464863,40 L30.7464863,50.3718439" id="Path-45-Copy-9" stroke="#4A4A4A" stroke-width="4"></path>
            <path d="M40.7464863,40 L40.7464863,50.3718439" id="Path-45-Copy-8" stroke="#4A4A4A" stroke-width="4"></path>
            <path d="M50.7464863,40 L50.7464863,50.3718439" id="Path-45-Copy-7" stroke="#4A4A4A" stroke-width="4"></path>
            <path d="M60.7464863,40 L60.7464863,50.3718439" id="Path-45-Copy-6" stroke="#4A4A4A" stroke-width="4"></path>
        </g>
        <g id="Group-26" transform="translate(147.000000, 311.000000)">
            <path d="M16.1632169,14.4431993 C15.3118448,14.4431993 15.102448,14.4836357 14.8912023,14.5966111 C14.7594509,14.6670725 14.6670725,14.7594509 14.5966111,14.8912023 C14.4836357,15.102448 14.4431993,15.3118448 14.4431993,16.1632169 L14.4431993,45.0367824 C14.4431993,45.8881545 14.4836357,46.0975514 14.5966111,46.3087971 C14.6670725,46.4405484 14.7594509,46.5329268 14.8912023,46.6033882 C15.102448,46.7163636 15.3118448,46.7568 16.1632169,46.7568 L45.0367824,46.7568 C45.8881545,46.7568 46.0975514,46.7163636 46.3087971,46.6033882 C46.4405484,46.5329268 46.5329268,46.4405484 46.6033882,46.3087971 C46.7163636,46.0975514 46.7568,45.8881545 46.7568,45.0367824 L46.7568,16.1632169 C46.7568,15.3118448 46.7163636,15.102448 46.6033882,14.8912023 C46.5329268,14.7594509 46.4405484,14.6670725 46.3087971,14.5966111 C46.0975514,14.4836357 45.8881545,14.4431993 45.0367824,14.4431993 L16.1632169,14.4431993 Z" id="Rectangle" stroke="#4A4A4A" stroke-width="3.68639924"></path>
            <g id="Group-19" transform="translate(52.584398, 9.600399) rotate(45.000000) translate(-52.584398, -9.600399) translate(44.584398, 5.100399)">
                <path d="M1.19364786,2.37202857 C3.34832665,0.790676189 5.53933583,7.27595761e-12 7.7666754,7.27595761e-12 C9.99401497,7.27595761e-12 12.2455751,0.790676189 14.5213558,2.37202857" id="Path-26" stroke="#4A4A4A" stroke-width="1.79999995"></path>
                <path d="M3.02384931,4.96153236 C4.67282817,3.89320232 6.26649428,3.35903731 7.80484764,3.35903731 C9.34320101,3.35903731 10.9356996,3.9152038 12.5823433,5.02753677" id="Path-27" stroke="#4A4A4A" stroke-width="1.79999995"></path>
                <path d="M4.90671545,7.64253896 C5.78685686,6.92790484 6.75290093,6.57058779 7.80484764,6.57058779 C8.85679436,6.57058779 9.8349082,6.92790484 10.7391892,7.64253896" id="Path-42" stroke="#4A4A4A" stroke-width="1.79999995"></path>
                <path d="M0.480191629,1.37169007 L5.65882084,8.80994231" id="Path-46" stroke="#FFFFFF" stroke-width="0.899999976"></path>
                <path d="M10.0159986,1.43228502 L15.0376595,8.80994231" id="Path-46-Copy" stroke="#FFFFFF" stroke-width="0.899999976" transform="translate(12.526829, 5.121114) scale(-1, 1) translate(-12.526829, -5.121114) "></path>
            </g>
            <g id="Group-19-Copy" transform="translate(9.648004, 9.491210) rotate(-45.000000) translate(-9.648004, -9.491210) translate(1.648004, 4.991210)">
                <path d="M1.19364786,2.37202857 C3.34832665,0.790676189 5.53933583,0 7.7666754,0 C9.99401497,0 12.2455751,0.790676189 14.5213558,2.37202857" id="Path-26" stroke="#4A4A4A" stroke-width="1.79999995"></path>
                <path d="M3.02384931,4.96153236 C4.67282817,3.89320232 6.26649428,3.35903731 7.80484764,3.35903731 C9.34320101,3.35903731 10.9356996,3.9152038 12.5823433,5.02753677" id="Path-27" stroke="#4A4A4A" stroke-width="1.79999995"></path>
                <path d="M4.90671545,7.64253896 C5.78685686,6.92790484 6.75290093,6.57058779 7.80484764,6.57058779 C8.85679436,6.57058779 9.8349082,6.92790484 10.7391892,7.64253896" id="Path-42" stroke="#4A4A4A" stroke-width="1.79999995"></path>
                <path d="M0.480191629,1.37169007 L5.65882084,8.80994231" id="Path-46" stroke="#FFFFFF" stroke-width="0.899999976"></path>
                <path d="M10.0159986,1.43228502 L15.0376595,8.80994231" id="Path-46-Copy" stroke="#FFFFFF" stroke-width="0.899999976" transform="translate(12.526829, 5.121114) scale(-1, 1) translate(-12.526829, -5.121114) "></path>
            </g>
            <g id="Group-19-Copy-3" transform="translate(52.584398, 51.527605) scale(1, -1) rotate(45.000000) translate(-52.584398, -51.527605) translate(44.584398, 47.027605)">
                <path d="M1.19364786,2.37202857 C3.34832665,0.790676189 5.53933583,0 7.7666754,0 C9.99401497,0 12.2455751,0.790676189 14.5213558,2.37202857" id="Path-26" stroke="#4A4A4A" stroke-width="1.79999995"></path>
                <path d="M3.02384931,4.96153236 C4.67282817,3.89320232 6.26649428,3.35903731 7.80484764,3.35903731 C9.34320101,3.35903731 10.9356996,3.9152038 12.5823433,5.02753677" id="Path-27" stroke="#4A4A4A" stroke-width="1.79999995"></path>
                <path d="M4.90671545,7.64253896 C5.78685686,6.92790484 6.75290093,6.57058779 7.80484764,6.57058779 C8.85679436,6.57058779 9.8349082,6.92790484 10.7391892,7.64253896" id="Path-42" stroke="#4A4A4A" stroke-width="1.79999995"></path>
                <path d="M0.480191629,1.37169007 L5.65882084,8.80994231" id="Path-46" stroke="#FFFFFF" stroke-width="0.899999976"></path>
                <path d="M10.0159986,1.43228502 L15.0376595,8.80994231" id="Path-46-Copy" stroke="#FFFFFF" stroke-width="0.899999976" transform="translate(12.526829, 5.121114) scale(-1, 1) translate(-12.526829, -5.121114) "></path>
            </g>
            <g id="Group-19-Copy-2" transform="translate(9.648004, 52.164001) scale(1, -1) rotate(-45.000000) translate(-9.648004, -52.164001) translate(1.648004, 47.664001)">
                <path d="M1.19364786,2.37202857 C3.34832665,0.790676189 5.53933583,-7.27595761e-12 7.7666754,-7.27595761e-12 C9.99401497,-7.27595761e-12 12.2455751,0.790676189 14.5213558,2.37202857" id="Path-26" stroke="#4A4A4A" stroke-width="1.79999995"></path>
                <path d="M3.02384931,4.96153236 C4.67282817,3.89320232 6.26649428,3.35903731 7.80484764,3.35903731 C9.34320101,3.35903731 10.9356996,3.9152038 12.5823433,5.02753677" id="Path-27" stroke="#4A4A4A" stroke-width="1.79999995"></path>
                <path d="M4.90671545,7.64253896 C5.78685686,6.92790484 6.75290093,6.57058779 7.80484764,6.57058779 C8.85679436,6.57058779 9.8349082,6.92790484 10.7391892,7.64253896" id="Path-42" stroke="#4A4A4A" stroke-width="1.79999995"></path>
                <path d="M0.480191629,1.37169007 L5.65882084,8.80994231" id="Path-46" stroke="#FFFFFF" stroke-width="0.899999976"></path>
                <path d="M10.0159986,1.43228502 L15.0376595,8.80994231" id="Path-46-Copy" stroke="#FFFFFF" stroke-width="0.899999976" transform="translate(12.526829, 5.121114) scale(-1, 1) translate(-12.526829, -5.121114) "></path>
            </g>
        </g>
        <g id="Group-2" transform="translate(95.000000, 92.000000)" stroke="#4A4A4A" stroke-width="4">
            <rect id="Rectangle" x="0" y="11" width="9" height="20" rx="2"></rect>
            <path d="M9,11 L27.071986,1.53372161 C28.0504485,1.02119364 29.2591351,1.3989082 29.7716631,2.37737069 C29.921651,2.66371124 30,2.98213976 30,3.30538468 L30,39.6946153 C30,40.7991848 29.1045695,41.6946153 28,41.6946153 C27.6767551,41.6946153 27.3583266,41.6162663 27.071986,41.4662784 L9,32 L9,32 L9,11 Z" id="Rectangle-Copy"></path>
            <path d="M45.6037165,1.51351535 C51.6484081,7.44612271 54.6423023,14.0181882 54.5853989,21.2297119 C54.5284956,28.4412356 51.5346015,35.0767133 45.6037165,41.136145" id="Path-57" stroke-linecap="square"></path>
            <path d="M38,10 C41.3647126,13.2940106 43.0312315,16.9430728 42.9995569,20.9471867 C42.9678823,24.9513006 41.3013633,28.6355717 38,32" id="Path-57-Copy" stroke-linecap="square"></path>
        </g>
        <g id="microphone" transform="translate(95.000000, 244.000000)" fill="#4A4A4A" fill-rule="nonzero" stroke="#4A4A4A" stroke-width="1.6470588">
            <path d="M30.316176,27.8296141 C29.7763524,27.8296141 29.3382348,28.273894 29.3382348,28.8235289 L29.3382348,34.7870177 C29.3382348,42.4600398 23.1967643,48.7018247 15.6470586,48.7018247 C8.0973528,48.7018247 1.95588232,42.4600398 1.95588232,34.7870177 L1.95588232,28.8235289 C1.95588232,28.273894 1.51776468,27.8296141 0.97794116,27.8296141 C0.43811764,27.8296141 0,28.273894 0,28.8235289 L0,34.7870177 C0,43.2203847 6.49744107,50.122129 14.6691174,50.6389647 L14.6691174,55.6592283 L9.7794116,55.6592283 C9.23958808,55.6592283 8.80147044,56.1035082 8.80147044,56.6531431 C8.80147044,57.2027779 9.23958808,57.6470578 9.7794116,57.6470578 L21.5147055,57.6470578 C22.054529,57.6470578 22.4926467,57.2027779 22.4926467,56.6531431 C22.4926467,56.1035082 22.054529,55.6592283 21.5147055,55.6592283 L16.6249997,55.6592283 L16.6249997,50.6389647 C24.796676,50.122129 31.2941171,43.2193907 31.2941171,34.7870177 L31.2941171,28.8235289 C31.2941171,28.273894 30.8559995,27.8296141 30.316176,27.8296141 Z" id="Path"></path>
            <path d="M15.6470586,45.7200804 C21.5782717,45.7200804 26.4044113,40.8151109 26.4044113,34.7870177 L26.4044113,10.9330627 C26.4044113,4.90496949 21.5782717,-2.66453526e-14 15.6470586,-2.66453526e-14 C9.71584542,-2.66453526e-14 4.8897058,4.90496949 4.8897058,10.9330627 L4.8897058,34.7870177 C4.8897058,40.8151109 9.71584542,45.7200804 15.6470586,45.7200804 Z M6.84558812,10.9330627 C6.84558812,6.00026359 10.7945145,1.98782958 15.6470586,1.98782958 C20.4996026,1.98782958 24.448529,6.00026359 24.448529,10.9330627 L24.448529,34.7870177 C24.448529,39.7198168 20.4996026,43.7322508 15.6470586,43.7322508 C10.7945145,43.7322508 6.84558812,39.7198168 6.84558812,34.7870177 L6.84558812,10.9330627 Z" id="Shape"></path>
        </g>
        <g id="Group" transform="translate(163.000000, 9.000000)" stroke="#4A4A4A">
            <path d="M19.7929118,60.0841391 C8.23682674,39.7172146 1.89054214,27.891477 0.754058037,24.6069261 C-1.10120334,19.2450383 -1.10120334,-3.21165317e-12 19.7929118,-3.21165317e-12 C40.687027,-3.21165317e-12 41.5645998,19.1010472 39.2956949,24.6069261 C37.9773803,27.8060381 31.4764526,39.6317757 19.7929118,60.0841391 Z" id="Path-48" stroke-width="4"></path>
            <circle id="Oval" stroke-width="4.51764652" cx="19.7929118" cy="20.6539854" r="8.47058723"></circle>
        </g>
        <g id="Group-34" transform="translate(341.000000, 71.000000)">
            <g id="Group-35">
                <g id="Group-8">
                    <g id="Group-7" transform="translate(60.784912, 0.000000)" stroke="#4A4A4A" stroke-linecap="square" stroke-width="6">
                        <path d="M3.90168608,1.73408279 L6.50281013,233.234123" id="Line-4" transform="translate(5.202248, 117.484103) rotate(1.000000) translate(-5.202248, -117.484103) "></path>
                        <path d="M29.9129266,1.73408279 L32.5140506,233.234123" id="Line-4-Copy" transform="translate(31.213489, 117.484103) rotate(1.000000) translate(-31.213489, -117.484103) "></path>
                        <path d="M55.9241671,1.73408279 L58.5252911,233.234123" id="Line-4-Copy-2" transform="translate(57.224729, 117.484103) rotate(1.000000) translate(-57.224729, -117.484103) "></path>
                        <path d="M81.9354076,1.73408279 L84.5365316,233.234123" id="Line-4-Copy-3" transform="translate(83.235970, 117.484103) rotate(1.000000) translate(-83.235970, -117.484103) "></path>
                        <path d="M107.946648,1.73408279 L110.547772,233.234123" id="Line-4-Copy-4" transform="translate(109.247210, 117.484103) rotate(1.000000) translate(-109.247210, -117.484103) "></path>
                    </g>
                    <g id="Group-7-Copy" transform="translate(117.993744, 117.259374) rotate(90.000000) translate(-117.993744, -117.259374) translate(60.993744, -0.240626)" stroke="#4A4A4A" stroke-linecap="square" stroke-width="6">
                        <path d="M3.90168608,1.73408279 L6.50281013,233.234123" id="Line-4" transform="translate(5.202248, 117.484103) rotate(1.000000) translate(-5.202248, -117.484103) "></path>
                        <path d="M29.9129266,1.73408279 L32.5140506,233.234123" id="Line-4-Copy" transform="translate(31.213489, 117.484103) rotate(1.000000) translate(-31.213489, -117.484103) "></path>
                        <path d="M55.9241671,1.73408279 L58.5252911,233.234123" id="Line-4-Copy-2" transform="translate(57.224729, 117.484103) rotate(1.000000) translate(-57.224729, -117.484103) "></path>
                        <path d="M81.9354076,1.73408279 L84.5365316,233.234123" id="Line-4-Copy-3" transform="translate(83.235970, 117.484103) rotate(1.000000) translate(-83.235970, -117.484103) "></path>
                        <path d="M107.946648,1.73408279 L110.547772,233.234123" id="Line-4-Copy-4" transform="translate(109.247210, 117.484103) rotate(1.000000) translate(-109.247210, -117.484103) "></path>
                    </g>
                    <rect id="Rectangle" stroke="#4A4A4A" stroke-width="6" fill="#FFFFFF" x="29.9702992" y="26.8436372" width="176.078684" height="176.078684" rx="10.4044962"></rect>
                    <path d="M59.1552165,75.8661182 L120.610765,55.0571258" id="Path-6" stroke="#4A4A4A" stroke-width="3.25140493"></path>
                    <path d="M55.5826638,117.628552 L120.610765,55.0571258" id="Path-9" stroke="#4A4A4A" stroke-width="3.25140493"></path>
                    <path d="M55.5826638,156.709667 L120.610765,55.0571258" id="Path-10" stroke="#4A4A4A" stroke-width="3.25140493"></path>
                    <path d="M59.1552165,75.8661182 L119.167224,94.0739866" id="Path-11" stroke="#4A4A4A" stroke-width="3.25140493"></path>
                    <path d="M59.1552165,77.7875505 L120.610765,135.293385" id="Path-28" stroke="#4A4A4A" stroke-width="3.25140493"></path>
                    <path d="M57.407814,79.5148679 L120.610765,176.333912" id="Path-29" stroke="#4A4A4A" stroke-width="3.25140493"></path>
                    <path d="M57.407814,117.628552 L119.167224,174.708832" id="Path-30" stroke="#4A4A4A" stroke-width="3.25140493"></path>
                    <path d="M57.407814,117.628552 L120.610765,135.293385" id="Path-31" stroke="#4A4A4A" stroke-width="3.25140493"></path>
                    <path d="M55.5826638,156.709667 L120.610765,174.708832" id="Path-32" stroke="#4A4A4A" stroke-width="3.25140493"></path>
                    <path d="M57.407814,156.709667 L119.167224,94.0739866" id="Path-33" stroke="#4A4A4A" stroke-width="3.25140493"></path>
                    <path d="M57.407814,117.628552 L120.610765,94.0739866" id="Path-34" stroke="#4A4A4A" stroke-width="3.25140493"></path>
                    <path d="M57.407814,156.709667 L120.610765,135.293385" id="Path-35" stroke="#4A4A4A" stroke-width="3.25140493"></path>
                    <path d="M120.610765,55.0571258 L180.436618,94.0739866" id="Path-36" stroke="#4A4A4A" stroke-width="3.25140493"></path>
                    <path d="M120.610765,57.5038446 L180.436618,133.090847" id="Path-37" stroke="#4A4A4A" stroke-width="3.25140493"></path>
                    <path d="M123.243381,95.297346 L180.436618,95.297346" id="Path-38" stroke="#4A4A4A" stroke-width="3.25140493"></path>
                    <path d="M123.243381,95.297346 L180.436618,133.090847" id="Path-39" stroke="#4A4A4A" stroke-width="3.25140493"></path>
                    <path d="M123.243381,135.293385 L180.436618,135.293385" id="Path-40" stroke="#4A4A4A" stroke-width="3.25140493"></path>
                    <path d="M120.610765,176.333912 L180.436618,135.293385" id="Path-41" stroke="#4A4A4A" stroke-width="3.25140493"></path>
                    <path d="M120.610765,174.708832 L180.436618,95.297346" id="Path-43" stroke="#4A4A4A" stroke-width="3.25140493"></path>
                    <path d="M120.610765,135.003089 L180.436618,94.0739866" id="Path-44" stroke="#4A4A4A" stroke-width="3.25140493"></path>
                    <circle id="Oval" stroke="#000000" stroke-width="2.60112405" fill="#FFFFFF" cx="55.5826638" cy="75.8661182" r="10.4044962"></circle>
                    <circle id="Oval-Copy-29" stroke="#000000" stroke-width="2.60112405" fill="#FFFFFF" cx="55.5826638" cy="114.882979" r="10.4044962"></circle>
                    <circle id="Oval-Copy-30" stroke="#000000" stroke-width="2.60112405" fill="#FFFFFF" cx="55.5826638" cy="153.89984" r="10.4044962"></circle>
                    <circle id="Oval-Copy-33" stroke="#00295B" stroke-width="2.60112405" fill="#FFFFFF" cx="120.610765" cy="55.0571258" r="10.4044962"></circle>
                    <circle id="Oval-Copy-32" stroke="#00295B" stroke-width="2.60112405" fill="#FFFFFF" cx="120.610765" cy="94.0739866" r="10.4044962"></circle>
                    <circle id="Oval-Copy-31" stroke="#00295B" stroke-width="2.60112405" fill="#FFFFFF" cx="120.610765" cy="133.090847" r="10.4044962"></circle>
                    <circle id="Oval-Copy-36" stroke="#4CB43B" stroke-width="2.60112405" fill="#FFFFFF" cx="180.436618" cy="94.0739866" r="10.4044962"></circle>
                    <circle id="Oval-Copy-35" stroke="#4CB43B" stroke-width="2.60112405" fill="#FFFFFF" cx="180.436618" cy="133.090847" r="10.4044962"></circle>
                    <circle id="Oval-Copy-34" stroke="#00295B" stroke-width="2.60112405" fill="#FFFFFF" cx="120.610765" cy="174.708832" r="10.4044962"></circle>
                </g>
            </g>
        </g>
        <g id="Group-31" transform="translate(129.000000, 180.000000)" stroke="#4CB43B">
            <g id="Group-32">
                <g id="Group-37" transform="translate(0.046712, 0.001539)">
                    <path d="M196.088128,2.24758662 L196.088128,9.59887032 C196.088128,9.81978422 196.267214,9.99887032 196.488128,9.99887032 L203.833354,9.99887032 L203.833354,9.99887032" id="Path-62" stroke-width="4.00000006" stroke-linecap="round" transform="translate(199.960741, 6.123228) rotate(226.000000) translate(-199.960741, -6.123228) "></path>
                    <path d="M4.44936666,6.19846158 L195.967456,6.19846158" id="Path-42" stroke-width="3.20000005" stroke-dasharray="5.200000077486038"></path>
                </g>
            </g>
        </g>
        <g id="Group-31-Copy" transform="translate(232.500000, 129.500000) rotate(10.000000) translate(-232.500000, -129.500000) translate(129.000000, 123.000000)" stroke="#4CB43B">
            <g id="Group-32">
                <g id="Group-37-Copy" transform="translate(0.046712, 0.001539)">
                    <path d="M196.088128,2.24758662 L196.088128,9.59887032 C196.088128,9.81978422 196.267214,9.99887032 196.488128,9.99887032 L203.833354,9.99887032 L203.833354,9.99887032" id="Path-62-Copy" stroke-width="4.00000006" stroke-linecap="round" transform="translate(199.960741, 6.123228) rotate(226.000000) translate(-199.960741, -6.123228) "></path>
                    <path d="M26.4522052,5.5726762 L195.967456,6.19846158" id="Path-42" stroke-width="3.20000005" stroke-dasharray="5.200000077486038"></path>
                </g>
            </g>
        </g>
        <g id="Group-31-Copy-3" transform="translate(252.000000, 70.366025) rotate(30.000000) translate(-252.000000, -70.366025) translate(148.500000, 62.866025)" stroke="#4CB43B">
            <g id="Group-32">
                <g id="Group-37-Copy-3" transform="translate(0.046712, 0.001539)">
                    <path d="M196.088128,2.24758662 L196.088128,9.59887032 C196.088128,9.81978422 196.267214,9.99887032 196.488128,9.99887032 L203.833354,9.99887032 L203.833354,9.99887032" id="Path-62-Copy-3" stroke-width="4.00000006" stroke-linecap="round" transform="translate(199.960741, 6.123228) rotate(226.000000) translate(-199.960741, -6.123228) "></path>
                    <path d="M58.3757022,13.3007762 L195.967456,6.19846158" id="Path-42" stroke-width="3.20000005" stroke-dasharray="5.200000077486038"></path>
                </g>
            </g>
        </g>
        <g id="Group-31-Copy-4" transform="translate(252.000000, 310.366025) scale(1, -1) rotate(30.000000) translate(-252.000000, -310.366025) translate(148.500000, 302.866025)" stroke="#4CB43B">
            <g id="Group-32">
                <g id="Group-37-Copy-4" transform="translate(0.046712, 0.001539)">
                    <path d="M196.088128,2.24758662 L196.088128,9.59887032 C196.088128,9.81978422 196.267214,9.99887032 196.488128,9.99887032 L203.833354,9.99887032 L203.833354,9.99887032" id="Path-62-Copy-4" stroke-width="4.00000006" stroke-linecap="round" transform="translate(199.960741, 6.123228) rotate(226.000000) translate(-199.960741, -6.123228) "></path>
                    <path d="M58.3757022,13.3007762 L195.967456,6.19846158" id="Path-42" stroke-width="3.20000005" stroke-dasharray="5.200000077486038"></path>
                </g>
            </g>
        </g>
        <g id="Group-31-Copy-2" transform="translate(232.500000, 243.500000) scale(1, -1) rotate(10.000000) translate(-232.500000, -243.500000) translate(129.000000, 237.000000)" stroke="#4CB43B">
            <g id="Group-32">
                <g id="Group-37-Copy-2" transform="translate(0.046712, 0.001539)">
                    <path d="M196.088128,2.24758662 L196.088128,9.59887032 C196.088128,9.81978422 196.267214,9.99887032 196.488128,9.99887032 L203.833354,9.99887032 L203.833354,9.99887032" id="Path-62-Copy-2" stroke-width="4.00000006" stroke-linecap="round" transform="translate(199.960741, 6.123228) rotate(226.000000) translate(-199.960741, -6.123228) "></path>
                    <path d="M26.4522052,5.5726762 L195.967456,6.19846158" id="Path-42" stroke-width="3.20000005" stroke-dasharray="5.200000077486038"></path>
                </g>
            </g>
        </g>
    </g>
</svg>